# xmcd
#
# Track frame offsets: 
#        150
#        14371
#        31384
#        43501
#        61223
#        80481
#        123471
#        138646
#        153157
#        176007
#        191864
#        205437
#
# Disc length: 2901 seconds
#
# Revision: 0
# Processed by: cddbd v1.5.2PL0 Copyright (c) Steve Scherf et al.
# Submitted via: ExactAudioCopy v1.0b4
#
DISCID=a70b530c
DTITLE=Devon Allman - Ragged and Dirty
DYEAR=2014
DGENRE=Blues Rock
TTITLE0=Half The Truth
TTITLE1=Can't Lose 'em All
TTITLE2=Leavin'
TTITLE3=I'll Be Around
TTITLE4=Traveling
TTITLE5=Midnight Lake Michigan
TTITLE6=Ten Million Slaves
TTITLE7=Blackjack Heartattack
TTITLE8=Back To You
TTITLE9=Times Have Changed
TTITLE10=Leave The City
TTITLE11=Ragged and Dirty
EXTD=
EXTT0=
EXTT1=
EXTT2=
EXTT3=
EXTT4=
EXTT5=
EXTT6=
EXTT7=
EXTT8=
EXTT9=
EXTT10=
EXTT11=
PLAYORDER=
